<svg xmlns="http://www.w3.org/2000/svg" viewBox="0 0 394.41 91.98"><defs><style>.cls-1{fill:#b14fc5;}.cls-2{fill:#fff;}</style></defs><g id="Layer_2" data-name="Layer 2"><g id="Layer_1-2" data-name="Layer 1"><circle class="cls-1" cx="324.32" cy="77.68" r="12.43"/><path class="cls-2" d="M81.37,36.74a19.34,19.34,0,0,0-6.74-5.54A21.92,21.92,0,0,0,64.5,29.05a19.87,19.87,0,0,0-5.84.84A25,25,0,0,0,53.6,32a17.2,17.2,0,0,0-4.06,3.16,19.86,19.86,0,0,0-2.8,3.75H46.5V30.72H27.55V90.08H47.22V57.9a17.6,17.6,0,0,1,.66-4.83,12.62,12.62,0,0,1,2-4.11,9.21,9.21,0,0,1,3.28-2.8,9.83,9.83,0,0,1,4.59-1,8.44,8.44,0,0,1,4.35,1,7.12,7.12,0,0,1,2.68,2.74,13,13,0,0,1,1.37,4,26.13,26.13,0,0,1,.42,4.77V90.08H86.2V53.37a35.12,35.12,0,0,0-1.14-8.82A21.68,21.68,0,0,0,81.37,36.74Z"/><polygon class="cls-2" points="119.69 69.22 119.34 69.22 106.82 30.72 85.25 30.72 108.61 90.08 129.71 90.08 153.07 30.72 132.21 30.72 119.69 69.22"/><path class="cls-2" d="M191,44a11.88,11.88,0,0,1,5.07-1.07,15.35,15.35,0,0,1,6.79,1.55,21.61,21.61,0,0,1,5.6,3.81l10.73-11.08a28.09,28.09,0,0,0-10.79-6.26,41.73,41.73,0,0,0-13-2.09,34.41,34.41,0,0,0-8.64,1.13,26,26,0,0,0-7.92,3.52,19.19,19.19,0,0,0-5.85,6.14,17.33,17.33,0,0,0-2.26,9.12,15.37,15.37,0,0,0,1.55,7.15,16,16,0,0,0,4,5,19.65,19.65,0,0,0,5.54,3.21,45.93,45.93,0,0,0,6.2,1.91,51.3,51.3,0,0,1,8.94,2.74,4.28,4.28,0,0,1,2.86,4.05,4.07,4.07,0,0,1-2.32,4,10.72,10.72,0,0,1-4.71,1.13A18,18,0,0,1,184.6,76a21.74,21.74,0,0,1-6.43-4.77l-11,11.57a30,30,0,0,0,11.62,6.85A44.78,44.78,0,0,0,193.07,92a38.93,38.93,0,0,0,9.06-1.07,25.24,25.24,0,0,0,8.16-3.45,17.82,17.82,0,0,0,8.17-15.74,15.42,15.42,0,0,0-1.67-7.39,16.79,16.79,0,0,0-4.41-5.24,24.11,24.11,0,0,0-6.14-3.46,45.69,45.69,0,0,0-6.74-2,55,55,0,0,1-8.28-2.38,3.67,3.67,0,0,1-2.56-3.58A3.75,3.75,0,0,1,191,44Z"/><rect class="cls-2" x="344.7" width="17.97" height="89.26"/><circle class="cls-2" cx="12.43" cy="12.43" r="12.43" transform="translate(-2.52 3.19) rotate(-13.28)"/><circle class="cls-2" cx="164.76" cy="12.43" r="12.43" transform="translate(39.47 120.15) rotate(-45)"/><circle class="cls-2" cx="224.74" cy="12.43" r="12.43" transform="translate(3.16 51.97) rotate(-13.28)"/><circle class="cls-2" cx="381.98" cy="12.43" r="12.43" transform="translate(7.36 88.09) rotate(-13.28)"/><path class="cls-2" d="M275.61,27a31.86,31.86,0,0,0-14,3.22V0h-18V89.26h18V87.7a32,32,0,1,0,14-60.71Zm0,47.11A15.14,15.14,0,1,1,290.74,59,15.14,15.14,0,0,1,275.61,74.1Z"/></g></g></svg>